<mxfile host="app.diagrams.net" modified="2024-01-26T15:45:41.450Z" agent="Mozilla/5.0 (Macintosh; Intel Mac OS X 10_15_7) AppleWebKit/537.36 (KHTML, like Gecko) Chrome/120.0.0.0 Safari/537.36" etag="cXoy8RWXcSCKtzJA4K4D" version="23.0.2" type="github">
  <diagram name="第 1 页" id="JMBbWcXGchRLQ26QFNBD">
    <mxGraphModel dx="1053" dy="588" grid="1" gridSize="10" guides="1" tooltips="1" connect="1" arrows="1" fold="1" page="1" pageScale="1" pageWidth="827" pageHeight="1169" math="0" shadow="0">
      <root>
        <mxCell id="0" />
        <mxCell id="1" parent="0" />
        <mxCell id="TMhinksdjBVztQhqIxPu-1" value="应用层" style="rounded=1;whiteSpace=wrap;html=1;" parent="1" vertex="1">
          <mxGeometry x="120" y="100" width="120" height="60" as="geometry" />
        </mxCell>
        <mxCell id="TMhinksdjBVztQhqIxPu-2" value="数字生活&lt;br&gt;设备底座" style="rounded=1;whiteSpace=wrap;html=1;" parent="1" vertex="1">
          <mxGeometry x="320" y="100" width="120" height="60" as="geometry" />
        </mxCell>
        <mxCell id="TMhinksdjBVztQhqIxPu-3" value="MQTT" style="rounded=1;whiteSpace=wrap;html=1;" parent="1" vertex="1">
          <mxGeometry x="520" y="100" width="120" height="60" as="geometry" />
        </mxCell>
        <mxCell id="TMhinksdjBVztQhqIxPu-4" value="设备" style="rounded=1;whiteSpace=wrap;html=1;" parent="1" vertex="1">
          <mxGeometry x="720" y="100" width="120" height="60" as="geometry" />
        </mxCell>
        <mxCell id="TMhinksdjBVztQhqIxPu-5" value="" style="endArrow=none;dashed=1;html=1;dashPattern=1 3;strokeWidth=2;rounded=0;entryX=0.5;entryY=1;entryDx=0;entryDy=0;" parent="1" target="TMhinksdjBVztQhqIxPu-1" edge="1">
          <mxGeometry width="50" height="50" relative="1" as="geometry">
            <mxPoint x="180" y="290" as="sourcePoint" />
            <mxPoint x="180" y="190" as="targetPoint" />
          </mxGeometry>
        </mxCell>
        <mxCell id="TMhinksdjBVztQhqIxPu-7" value="" style="endArrow=none;dashed=1;html=1;dashPattern=1 3;strokeWidth=2;rounded=0;entryX=0.5;entryY=1;entryDx=0;entryDy=0;" parent="1" source="TMhinksdjBVztQhqIxPu-18" edge="1">
          <mxGeometry width="50" height="50" relative="1" as="geometry">
            <mxPoint x="379.5" y="690" as="sourcePoint" />
            <mxPoint x="379.5" y="160" as="targetPoint" />
          </mxGeometry>
        </mxCell>
        <mxCell id="TMhinksdjBVztQhqIxPu-8" value="" style="endArrow=none;dashed=1;html=1;dashPattern=1 3;strokeWidth=2;rounded=0;entryX=0.5;entryY=1;entryDx=0;entryDy=0;" parent="1" source="TMhinksdjBVztQhqIxPu-16" edge="1">
          <mxGeometry width="50" height="50" relative="1" as="geometry">
            <mxPoint x="579.5" y="690" as="sourcePoint" />
            <mxPoint x="579.5" y="160" as="targetPoint" />
          </mxGeometry>
        </mxCell>
        <mxCell id="TMhinksdjBVztQhqIxPu-9" value="" style="endArrow=none;dashed=1;html=1;dashPattern=1 3;strokeWidth=2;rounded=0;entryX=0.5;entryY=1;entryDx=0;entryDy=0;" parent="1" source="TMhinksdjBVztQhqIxPu-14" edge="1">
          <mxGeometry width="50" height="50" relative="1" as="geometry">
            <mxPoint x="779.5" y="690" as="sourcePoint" />
            <mxPoint x="779.5" y="160" as="targetPoint" />
          </mxGeometry>
        </mxCell>
        <mxCell id="TMhinksdjBVztQhqIxPu-11" value="" style="endArrow=none;dashed=1;html=1;dashPattern=1 3;strokeWidth=2;rounded=0;entryX=0.5;entryY=1;entryDx=0;entryDy=0;" parent="1" source="TMhinksdjBVztQhqIxPu-22" edge="1">
          <mxGeometry width="50" height="50" relative="1" as="geometry">
            <mxPoint x="180" y="570" as="sourcePoint" />
            <mxPoint x="180" y="158.9999999999999" as="targetPoint" />
          </mxGeometry>
        </mxCell>
        <mxCell id="TMhinksdjBVztQhqIxPu-15" value="" style="endArrow=none;dashed=1;html=1;dashPattern=1 3;strokeWidth=2;rounded=0;entryX=0.5;entryY=1;entryDx=0;entryDy=0;" parent="1" target="TMhinksdjBVztQhqIxPu-14" edge="1">
          <mxGeometry width="50" height="50" relative="1" as="geometry">
            <mxPoint x="780" y="560" as="sourcePoint" />
            <mxPoint x="779.5" y="160" as="targetPoint" />
          </mxGeometry>
        </mxCell>
        <mxCell id="TMhinksdjBVztQhqIxPu-14" value="" style="html=1;points=[[0,0,0,0,5],[0,1,0,0,-5],[1,0,0,0,5],[1,1,0,0,-5]];perimeter=orthogonalPerimeter;outlineConnect=0;targetShapes=umlLifeline;portConstraint=eastwest;newEdgeStyle={&quot;curved&quot;:0,&quot;rounded&quot;:0};" parent="1" vertex="1">
          <mxGeometry x="775" y="200" width="10" height="330" as="geometry" />
        </mxCell>
        <mxCell id="TMhinksdjBVztQhqIxPu-17" value="" style="endArrow=none;dashed=1;html=1;dashPattern=1 3;strokeWidth=2;rounded=0;entryX=0.5;entryY=1;entryDx=0;entryDy=0;" parent="1" target="TMhinksdjBVztQhqIxPu-16" edge="1">
          <mxGeometry width="50" height="50" relative="1" as="geometry">
            <mxPoint x="580" y="560" as="sourcePoint" />
            <mxPoint x="579.5" y="160" as="targetPoint" />
          </mxGeometry>
        </mxCell>
        <mxCell id="TMhinksdjBVztQhqIxPu-16" value="" style="html=1;points=[[0,0,0,0,5],[0,1,0,0,-5],[1,0,0,0,5],[1,1,0,0,-5]];perimeter=orthogonalPerimeter;outlineConnect=0;targetShapes=umlLifeline;portConstraint=eastwest;newEdgeStyle={&quot;curved&quot;:0,&quot;rounded&quot;:0};" parent="1" vertex="1">
          <mxGeometry x="575" y="200" width="10" height="330" as="geometry" />
        </mxCell>
        <mxCell id="TMhinksdjBVztQhqIxPu-19" value="" style="endArrow=none;dashed=1;html=1;dashPattern=1 3;strokeWidth=2;rounded=0;entryX=0.5;entryY=1;entryDx=0;entryDy=0;" parent="1" target="TMhinksdjBVztQhqIxPu-18" edge="1">
          <mxGeometry width="50" height="50" relative="1" as="geometry">
            <mxPoint x="380" y="560" as="sourcePoint" />
            <mxPoint x="379.5" y="160" as="targetPoint" />
          </mxGeometry>
        </mxCell>
        <mxCell id="TMhinksdjBVztQhqIxPu-18" value="" style="html=1;points=[[0,0,0,0,5],[0,1,0,0,-5],[1,0,0,0,5],[1,1,0,0,-5]];perimeter=orthogonalPerimeter;outlineConnect=0;targetShapes=umlLifeline;portConstraint=eastwest;newEdgeStyle={&quot;curved&quot;:0,&quot;rounded&quot;:0};" parent="1" vertex="1">
          <mxGeometry x="375" y="200" width="10" height="330" as="geometry" />
        </mxCell>
        <mxCell id="TMhinksdjBVztQhqIxPu-20" value="登录请求" style="html=1;verticalAlign=bottom;endArrow=block;curved=0;rounded=0;" parent="1" edge="1">
          <mxGeometry width="80" relative="1" as="geometry">
            <mxPoint x="770" y="240" as="sourcePoint" />
            <mxPoint x="587" y="240" as="targetPoint" />
          </mxGeometry>
        </mxCell>
        <mxCell id="TMhinksdjBVztQhqIxPu-21" value="登录成功" style="html=1;verticalAlign=bottom;endArrow=open;dashed=1;endSize=8;curved=0;rounded=0;" parent="1" edge="1">
          <mxGeometry relative="1" as="geometry">
            <mxPoint x="587" y="300" as="sourcePoint" />
            <mxPoint x="772" y="300" as="targetPoint" />
          </mxGeometry>
        </mxCell>
        <mxCell id="TMhinksdjBVztQhqIxPu-23" value="" style="endArrow=none;dashed=1;html=1;dashPattern=1 3;strokeWidth=2;rounded=0;entryX=0.5;entryY=1;entryDx=0;entryDy=0;" parent="1" target="TMhinksdjBVztQhqIxPu-22" edge="1">
          <mxGeometry width="50" height="50" relative="1" as="geometry">
            <mxPoint x="180" y="560" as="sourcePoint" />
            <mxPoint x="180" y="279" as="targetPoint" />
          </mxGeometry>
        </mxCell>
        <mxCell id="TMhinksdjBVztQhqIxPu-22" value="" style="html=1;points=[[0,0,0,0,5],[0,1,0,0,-5],[1,0,0,0,5],[1,1,0,0,-5]];perimeter=orthogonalPerimeter;outlineConnect=0;targetShapes=umlLifeline;portConstraint=eastwest;newEdgeStyle={&quot;curved&quot;:0,&quot;rounded&quot;:0};" parent="1" vertex="1">
          <mxGeometry x="175" y="200" width="10" height="330" as="geometry" />
        </mxCell>
        <mxCell id="TMhinksdjBVztQhqIxPu-24" value="下发功能" style="html=1;verticalAlign=bottom;endArrow=block;curved=0;rounded=0;" parent="1" edge="1">
          <mxGeometry width="80" relative="1" as="geometry">
            <mxPoint x="186" y="391" as="sourcePoint" />
            <mxPoint x="371" y="391" as="targetPoint" />
          </mxGeometry>
        </mxCell>
        <mxCell id="TMhinksdjBVztQhqIxPu-25" value="下发指令" style="html=1;verticalAlign=bottom;endArrow=block;curved=0;rounded=0;" parent="1" edge="1">
          <mxGeometry width="80" relative="1" as="geometry">
            <mxPoint x="386" y="390" as="sourcePoint" />
            <mxPoint x="571" y="390.5" as="targetPoint" />
          </mxGeometry>
        </mxCell>
        <mxCell id="TMhinksdjBVztQhqIxPu-26" value="下发指令" style="html=1;verticalAlign=bottom;endArrow=block;curved=0;rounded=0;" parent="1" edge="1">
          <mxGeometry width="80" relative="1" as="geometry">
            <mxPoint x="589" y="390" as="sourcePoint" />
            <mxPoint x="774" y="390" as="targetPoint" />
          </mxGeometry>
        </mxCell>
        <mxCell id="TMhinksdjBVztQhqIxPu-27" value="应答主题" style="html=1;verticalAlign=bottom;endArrow=open;endSize=8;curved=0;rounded=0;" parent="1" edge="1">
          <mxGeometry relative="1" as="geometry">
            <mxPoint x="766" y="460" as="sourcePoint" />
            <mxPoint x="585" y="460" as="targetPoint" />
          </mxGeometry>
        </mxCell>
        <mxCell id="TMhinksdjBVztQhqIxPu-28" value="应答成功" style="html=1;verticalAlign=bottom;endArrow=open;endSize=8;curved=0;rounded=0;" parent="1" edge="1">
          <mxGeometry relative="1" as="geometry">
            <mxPoint x="566" y="460" as="sourcePoint" />
            <mxPoint x="385" y="460" as="targetPoint" />
          </mxGeometry>
        </mxCell>
        <mxCell id="TMhinksdjBVztQhqIxPu-29" value="应答成功" style="html=1;verticalAlign=bottom;endArrow=open;endSize=8;curved=0;rounded=0;" parent="1" edge="1">
          <mxGeometry relative="1" as="geometry">
            <mxPoint x="375" y="460" as="sourcePoint" />
            <mxPoint x="190" y="460" as="targetPoint" />
          </mxGeometry>
        </mxCell>
        <mxCell id="coS48NyEHjj-E4A7_Tiw-2" value="设备校验" style="html=1;verticalAlign=bottom;endArrow=block;curved=0;rounded=0;" parent="1" edge="1">
          <mxGeometry width="80" relative="1" as="geometry">
            <mxPoint x="573" y="240" as="sourcePoint" />
            <mxPoint x="388" y="240" as="targetPoint" />
          </mxGeometry>
        </mxCell>
        <mxCell id="coS48NyEHjj-E4A7_Tiw-3" value="校验通过" style="html=1;verticalAlign=bottom;endArrow=open;dashed=1;endSize=8;curved=0;rounded=0;" parent="1" edge="1">
          <mxGeometry relative="1" as="geometry">
            <mxPoint x="390" y="300" as="sourcePoint" />
            <mxPoint x="575" y="300" as="targetPoint" />
          </mxGeometry>
        </mxCell>
        <mxCell id="coS48NyEHjj-E4A7_Tiw-4" value="订阅主题" style="html=1;verticalAlign=bottom;endArrow=block;curved=0;rounded=0;" parent="1" edge="1">
          <mxGeometry width="80" relative="1" as="geometry">
            <mxPoint x="772" y="346" as="sourcePoint" />
            <mxPoint x="587" y="346" as="targetPoint" />
          </mxGeometry>
        </mxCell>
      </root>
    </mxGraphModel>
  </diagram>
</mxfile>
